<svg width="25" height="25" viewBox="0 0 25 25" fill="none" xmlns="http://www.w3.org/2000/svg">
<path d="M20.8333 8.33463L12.4999 13.543L4.16659 8.33463V6.2513L12.4999 11.4596L20.8333 6.2513V8.33463ZM20.8333 4.16797H4.16659C3.01034 4.16797 2.08325 5.09505 2.08325 6.2513V18.7513C2.08325 19.3038 2.30275 19.8337 2.69345 20.2244C3.08415 20.6151 3.61405 20.8346 4.16659 20.8346H20.8333C21.3858 20.8346 21.9157 20.6151 22.3064 20.2244C22.6971 19.8337 22.9166 19.3038 22.9166 18.7513V6.2513C22.9166 5.69877 22.6971 5.16886 22.3064 4.77816C21.9157 4.38746 21.3858 4.16797 20.8333 4.16797Z" fill="black"/>
</svg>
