<svg width="25" height="25" viewBox="0 0 25 25" fill="none" xmlns="http://www.w3.org/2000/svg">
<path d="M12.5002 11.9779C11.8095 11.9779 11.1471 11.7035 10.6587 11.2151C10.1704 10.7267 9.896 10.0644 9.896 9.3737C9.896 8.68303 10.1704 8.02065 10.6587 7.53227C11.1471 7.0439 11.8095 6.76953 12.5002 6.76953C13.1908 6.76953 13.8532 7.0439 14.3416 7.53227C14.83 8.02065 15.1043 8.68303 15.1043 9.3737C15.1043 9.71568 15.037 10.0543 14.9061 10.3703C14.7752 10.6862 14.5834 10.9733 14.3416 11.2151C14.0998 11.4569 13.8127 11.6488 13.4967 11.7796C13.1808 11.9105 12.8421 11.9779 12.5002 11.9779ZM12.5002 2.08203C10.5663 2.08203 8.71163 2.85026 7.34418 4.21771C5.97672 5.58516 5.2085 7.43983 5.2085 9.3737C5.2085 14.8424 12.5002 22.9154 12.5002 22.9154C12.5002 22.9154 19.7918 14.8424 19.7918 9.3737C19.7918 7.43983 19.0236 5.58516 17.6561 4.21771C16.2887 2.85026 14.434 2.08203 12.5002 2.08203Z" fill="white"/>
</svg>
