<svg width="15" height="21" viewBox="0 0 15 21" fill="none" xmlns="http://www.w3.org/2000/svg">
<path d="M7.50016 9.98177C6.8095 9.98177 6.14712 9.70741 5.65874 9.21903C5.17036 8.73065 4.896 8.06827 4.896 7.3776C4.896 6.68694 5.17036 6.02456 5.65874 5.53618C6.14712 5.0478 6.8095 4.77344 7.50016 4.77344C8.19083 4.77344 8.85321 5.0478 9.34159 5.53618C9.82996 6.02456 10.1043 6.68694 10.1043 7.3776C10.1043 7.71959 10.037 8.05822 9.9061 8.37418C9.77523 8.69013 9.58341 8.97721 9.34159 9.21903C9.09977 9.46085 8.81269 9.65267 8.49674 9.78354C8.18078 9.91441 7.84215 9.98177 7.50016 9.98177ZM7.50016 0.0859375C5.56629 0.0859375 3.71163 0.854164 2.34418 2.22162C0.976723 3.58907 0.208496 5.44373 0.208496 7.3776C0.208496 12.8464 7.50016 20.9193 7.50016 20.9193C7.50016 20.9193 14.7918 12.8464 14.7918 7.3776C14.7918 5.44373 14.0236 3.58907 12.6561 2.22162C11.2887 0.854164 9.43403 0.0859375 7.50016 0.0859375Z" fill="#FEC34C"/>
</svg>
